<svg xmlns="http://www.w3.org/2000/svg" width="126" height="24" viewBox="0 0 126 24">
    <g fill="none" fill-rule="nonzero">
        <path fill="#86BC24" d="M119.31 20.579c0-1.874 1.497-3.395 3.34-3.395 1.843 0 3.338 1.52 3.338 3.395 0 1.874-1.495 3.393-3.338 3.393s-3.34-1.52-3.34-3.393"/>
        <path fill="#FFF" d="M12.827 11.59c0-2.15-.409-3.746-1.226-4.785-.818-1.038-2.058-1.557-3.724-1.557H6.104v13.148H7.46c1.851 0 3.208-.558 4.071-1.678.863-1.117 1.296-2.827 1.296-5.129m6.322-.224c0 3.917-1.035 6.936-3.107 9.054-2.071 2.12-4.983 3.18-8.737 3.18H.012V.127h7.803c3.619 0 6.413.964 8.382 2.89 1.968 1.927 2.952 4.708 2.952 8.348M39.352 23.598h5.803V.028h-5.803zM53.308 14.807c0 1.502.193 2.649.579 3.436.386.79 1.033 1.183 1.943 1.183.9 0 1.537-.394 1.908-1.183.371-.787.556-1.934.556-3.436 0-1.495-.188-2.623-.563-3.384-.377-.763-1.02-1.145-1.93-1.145-.891 0-1.528.38-1.914 1.136-.386.757-.58 1.888-.58 3.393m10.894 0c0 2.863-.738 5.096-2.218 6.697-1.48 1.602-3.55 2.404-6.212 2.404-2.552 0-4.584-.82-6.092-2.458-1.51-1.638-2.265-3.852-2.265-6.643 0-2.855.74-5.072 2.22-6.654 1.48-1.581 3.555-2.372 6.227-2.372 1.651 0 3.112.367 4.378 1.098 1.266.732 2.244 1.78 2.93 3.145.689 1.364 1.032 2.959 1.032 4.783M66.506 23.598h5.804V6.091h-5.804zM66.505 3.973h5.805V.028h-5.805zM84.07 19.133c.783 0 1.716-.202 2.805-.604v4.405c-.783.35-1.526.6-2.234.748-.707.15-1.537.225-2.486.225-1.95 0-3.354-.498-4.217-1.492-.858-.994-1.29-2.52-1.29-4.58v-7.217h-2.032V6.092h2.033v-4.47L82.498.586v5.505H86.2v4.526h-3.703v6.815c0 1.133.524 1.7 1.571 1.7M97.503 19.133c.784 0 1.717-.202 2.806-.604v4.405c-.782.35-1.527.6-2.234.748-.708.15-1.535.225-2.487.225-1.948 0-3.353-.498-4.214-1.492-.86-.994-1.292-2.52-1.292-4.58v-7.217H88.05V6.092h2.033V1.554L95.93.587v5.505h3.705v4.526H95.93v6.815c0 1.133.525 1.7 1.573 1.7M107.632 12.674c.08-.959.35-1.661.809-2.11.462-.448 1.032-.672 1.714-.672.744 0 1.335.252 1.774.759.441.503.671 1.178.69 2.023h-4.987zm8.185-4.829c-1.38-1.375-3.337-2.063-5.869-2.063-2.661 0-4.71.79-6.145 2.372-1.435 1.581-2.153 3.85-2.153 6.806 0 2.864.776 5.071 2.324 6.621 1.548 1.55 3.723 2.326 6.524 2.326 1.345 0 2.502-.093 3.472-.279a9.939 9.939 0 0 0 2.803-.995l-.892-3.945c-.658.273-1.284.483-1.875.622a12.25 12.25 0 0 1-2.812.302c-1.118 0-2.001-.278-2.649-.834-.647-.557-.992-1.325-1.031-2.303h10.374v-2.688c0-2.586-.69-4.567-2.07-5.942M26.852 12.674c.08-.959.349-1.661.809-2.11.46-.448 1.031-.672 1.714-.672.742 0 1.334.252 1.773.759.442.503.67 1.178.691 2.023h-4.987zm8.186-4.829c-1.38-1.375-3.337-2.063-5.87-2.063-2.663 0-4.71.79-6.145 2.372-1.434 1.581-2.153 3.85-2.153 6.806 0 2.864.775 5.071 2.324 6.621 1.548 1.55 3.723 2.326 6.523 2.326 1.345 0 2.503-.093 3.473-.279a9.955 9.955 0 0 0 2.803-.995l-.892-3.945c-.658.273-1.284.483-1.875.622a12.27 12.27 0 0 1-2.812.302c-1.118 0-2.002-.278-2.649-.834-.648-.557-.992-1.325-1.032-2.303h10.374v-2.688c0-2.586-.69-4.567-2.07-5.942"/>
    </g>
</svg>
